<svg width="100" height="200" viewBox="0 0 100 200" fill="none" xmlns="http://www.w3.org/2000/svg">
<rect x="2.5" y="2.5" width="95" height="195" rx="2.5" fill="#AB6C3E" stroke="black" stroke-width="5"/>
<circle cx="85.5" cy="99.5" r="3.5" fill="black"/>
<path d="M66 97C66 96.6667 69.9 96 85.5 96L85 103L77 101.5L75 98.5L66 97Z" fill="black"/>
<path d="M17.9419 11.9004C18.6748 16.786 19.205 21.7987 18.5013 26.7245C18.2801 28.2731 18.1937 29.7218 18.1937 31.2836" stroke="black" stroke-linecap="round"/>
<path d="M20.2075 33.8009C20.9472 37.7167 20.9088 41.7716 20.9487 45.744C21.0198 52.8218 21.5174 59.797 22.3053 66.8334C23.0057 73.0884 23.48 79.3581 23.48 85.6571" stroke="black" stroke-linecap="round"/>
<path d="M30.7801 48.9046C30.7801 48.1772 30.9438 47.4768 31.0878 46.7649C32.1464 41.5309 33.107 36.3381 33.6471 31.0179C34.1874 25.6947 34.743 20.3017 34.3323 14.9492C34.118 12.1557 33.5492 9.42136 33.5492 6.61413" stroke="black" stroke-linecap="round"/>
<path d="M44.877 6.3624C45.1806 8.53143 45.8451 10.6428 46.3594 12.7675C47.1252 15.9314 47.6428 19.1453 48.4292 22.3053C49.4242 26.3037 50.998 30.2505 51.6737 34.3043" stroke="black" stroke-linecap="round"/>
<path d="M61.2394 4.85203C60.3726 10.6303 60.7973 16.1488 61.2953 21.9696C61.783 27.6693 63.5342 33.1457 64.0084 38.8355" stroke="black" stroke-linecap="round"/>
<path d="M61.9946 44.6252C61.9946 50.7448 59.5713 56.4817 58.6242 62.4701C58.0557 66.0642 57.7528 69.7076 57.5054 73.3364C57.4549 74.077 57.4941 74.4212 57.7152 75.0845" stroke="black" stroke-linecap="round"/>
<path d="M58.2186 70.8051C60.7538 80.2497 62.7121 90.0452 63.0854 99.8379C63.1993 102.827 63.0015 105.826 63.0015 108.816" stroke="black" stroke-linecap="round"/>
<path d="M42.108 75.3362C43.8454 88.56 46.2653 101.669 48.1495 114.858" stroke="black" stroke-linecap="round"/>
<path d="M33.5492 83.6433C33.7174 92.7288 33.937 102.018 34.8637 111.054C34.9949 112.333 35.0853 115.865 37.0734 115.865" stroke="black" stroke-linecap="round"/>
<path d="M34.8078 48.6529C36.2519 55.2956 37.5612 61.9767 39.1711 68.5815C39.6456 70.5279 40.3459 72.5528 40.3459 74.581" stroke="black" stroke-linecap="round"/>
<path d="M23.48 108.061C23.8977 118.975 23.2693 129.881 23.6059 140.786C23.748 145.392 23.4275 149.741 22.7528 154.295C22.2783 157.498 22.4548 160.733 21.9696 163.917C21.5196 166.87 21.7179 169.912 21.7179 172.895C21.7179 174.163 21.2602 175.273 22.7248 175.273" stroke="black" stroke-linecap="round"/>
<path d="M25.2421 196.166C24.4451 195.812 24.7746 193.682 24.8505 193.062C25.2315 189.947 25.9795 186.888 26.221 183.748C26.287 182.89 26.5007 182.176 26.5007 181.314" stroke="black" stroke-linecap="round"/>
<path d="M9.13142 192.139C7.71777 189.088 7.6817 185.788 7.63503 182.475C7.60549 180.377 7.2974 177.873 7.98466 175.832C9.54305 171.204 10.1023 166.238 10.1383 161.344C10.1944 153.718 11.1053 145.984 10.3621 138.366C10.1987 136.692 9.41922 135.199 9.38315 133.486C9.33547 131.221 9.35185 128.94 9.39714 126.675C9.5268 120.192 10.182 113.933 9.25729 107.46C8.21981 100.197 8.96227 92.5084 8.62796 85.1537" stroke="black" stroke-linecap="round"/>
<path d="M8.12451 12.1522L8.12451 60.7359" stroke="black" stroke-linecap="round"/>
<path d="M79.6156 37.5768C83.5692 43.5071 83.107 52.0036 83.1398 58.834C83.1568 62.3672 83.3436 64.7675 85.1537 67.7843" stroke="black" stroke-linecap="round"/>
<path d="M78.8604 59.2255C78.8604 64.1257 78.9626 69.0407 78.7485 73.9377C78.594 77.4735 78.0689 80.9725 77.8675 84.4964C77.7831 85.9739 77.6018 87.4664 77.6018 88.9296" stroke="black" stroke-linecap="round"/>
<path d="M84.3985 4.09684C84.5048 8.59799 84.9232 13.4421 86.1046 17.8021C86.31 18.56 86.5573 20.4237 87.4192 20.711" stroke="black" stroke-linecap="round"/>
<path d="M87.4192 46.3874C87.4192 51.523 90.3002 56.3457 90.8875 61.4631C91.1481 63.7338 91.1952 66.007 91.1952 68.2878" stroke="black" stroke-linecap="round"/>
<path d="M83.6433 83.1398C84.5432 87.0893 85.0122 91.0846 85.1676 95.1249C85.1906 95.7206 85.1085 96.9849 85.9088 96.9849" stroke="black" stroke-linecap="round"/>
<path d="M91.1952 107.054C89.2192 116.152 89.3288 125.702 89.8246 134.982C89.9601 137.518 90.44 140.01 90.44 142.548" stroke="black" stroke-linecap="round"/>
<path d="M87.1675 145.569C87.1675 150.669 87.1675 155.768 87.1675 160.868C87.1675 163.217 87.1494 165.567 87.1675 167.917C87.1718 168.479 87.1087 168.669 87.4192 168.979" stroke="black" stroke-linecap="round"/>
<path d="M77.6018 171.749C77.6018 174.702 77.7844 177.663 77.6857 180.615C77.5622 184.307 76.939 187.934 76.3991 191.579C76.2504 192.583 75.5947 194.914 76.3431 195.663" stroke="black" stroke-linecap="round"/>
<path d="M60.4842 197.928C58.4428 196.444 58.9701 191.088 59.0298 189.118C59.1594 184.839 59.9807 180.547 59.9807 176.28" stroke="black" stroke-linecap="round"/>
<path d="M62.7497 167.721C62.7497 163.982 62.7497 160.244 62.7497 156.505C62.7497 155.103 62.15 151.88 63.0015 150.603" stroke="black" stroke-linecap="round"/>
<path d="M58.2186 147.331C58.2186 145.518 57.8147 142.201 55.8272 141.317C54.1449 140.57 53.1848 137.715 51.6737 136.506" stroke="black" stroke-linecap="round"/>
<path d="M55.7013 134.241C53.5157 134.241 53.6735 129.962 53.9672 128.493C54.3197 126.731 57.751 125.718 58.9738 126.941" stroke="black" stroke-linecap="round"/>
<path d="M63.0015 129.206C64.2516 129.775 65.3626 132.707 65.4908 133.989C65.6146 135.227 65.0852 136.002 64.2322 136.842C63.8646 137.204 63.5364 137.954 63.1273 138.227C62.5143 138.635 60.4874 138.269 59.729 138.269" stroke="black" stroke-linecap="round"/>
<path d="M59.2255 120.396C58.1301 117.241 56.9271 114.125 55.7573 110.998C55.332 109.861 55.1339 108.864 55.2119 107.655C55.4015 104.716 57.0009 102.207 57.9669 99.5022" stroke="black" stroke-linecap="round"/>
<path d="M47.3943 123.668C45.2309 123.885 46.0249 129.079 46.1916 130.171C46.8553 134.522 47.3401 139.067 48.555 143.303C49.1044 145.218 50.0429 146.969 50.6667 148.841" stroke="black" stroke-linecap="round"/>
<path d="M42.6114 152.617C42.6114 154.929 42.6205 157.242 42.6114 159.554C42.5937 164.05 41.9226 168.89 44.3735 172.909C46.1962 175.899 49.2388 177.41 51.1702 180.307" stroke="black" stroke-linecap="round"/>
<path d="M41.3528 178.797C41.2753 181.276 40.9642 183.661 41.5206 186.125C41.9557 188.052 42.8654 190.462 43.7722 192.236C44.8229 194.292 45.9909 196.268 48.4012 196.67" stroke="black" stroke-linecap="round"/>
<path d="M32.794 187.607C29.6407 186.031 30.2189 179.865 30.4445 177.091C30.7768 173.005 31.6464 168.99 32.1367 164.924C32.4615 162.23 32.6664 159.46 33.4233 156.841C34.097 154.509 35.1006 152.315 35.2833 149.848C35.4495 147.604 35.3775 145.277 35.0595 143.051" stroke="black" stroke-linecap="round"/>
<path d="M39.0872 140.031C41.6682 136.638 41.142 131.815 39.7025 128.087C38.5475 125.096 37.2295 121.558 34.0806 120.27C32.2868 119.536 32.794 117.194 32.794 115.613" stroke="black" stroke-linecap="round"/>
<path d="M20.711 13.4108C22.2415 24.4308 31.6143 35.8927 26.5007 47.1425" stroke="#D29F7A" stroke-linecap="round"/>
<path d="M11.1453 20.9627C11.2149 22.9825 11.467 24.9928 11.6487 27.0042C12.1971 33.0754 11.8727 39.0167 11.1033 45.0588C10.0723 53.1554 7.95245 61.0131 6.61413 69.043" stroke="#D29F7A" stroke-linecap="round"/>
<path d="M14.166 71.812C13.8423 79.5262 10.6418 86.6669 10.6418 94.4676" stroke="#D29F7A" stroke-linecap="round"/>
<path d="M13.1591 84.3985C14.0941 92.6799 12.3933 100.687 11.3131 108.844C10.8023 112.702 10.6209 116.682 9.38315 120.396" stroke="#D29F7A" stroke-linecap="round"/>
<path d="M14.9212 117.627C14.9212 128.417 11.7298 138.951 9.13142 149.345" stroke="#D29F7A" stroke-linecap="round"/>
<path d="M18.9489 127.948C18.9489 134.474 19.0629 141.008 18.6831 147.527C18.4867 150.899 18.1937 154.271 18.1937 157.652" stroke="#D29F7A" stroke-linecap="round"/>
<path d="M11.1453 169.231C11.4478 173.77 12.126 177.686 13.6346 181.986C14.4733 184.376 15.1765 186.1 17.1868 187.607" stroke="#D29F7A" stroke-linecap="round"/>
<path d="M29.018 61.7428C29.1313 65.593 29.152 69.5516 29.8292 73.3504C30.1932 75.3925 30.9262 77.3842 31.5353 79.3639" stroke="#D29F7A" stroke-linecap="round"/>
<path d="M28.2628 15.1729C28.0016 19.3243 27.6146 23.4681 27.3678 27.6195C27.2799 29.0976 27.2559 30.5728 27.2559 32.0528C27.2559 32.4128 27.3278 33.4542 27.172 33.1296C26.695 32.1358 26.6491 30.9876 26.4028 29.9131C25.7438 27.0371 24.9939 24.1972 24.2072 21.3543C23.874 20.15 23.6641 17.3339 22.7807 16.3197C22.1041 15.5428 22.4995 18.3662 22.4871 19.3964C22.4439 22.9573 22.4731 26.5198 22.4731 30.0809C22.4731 30.6496 22.4833 31.2184 22.4731 31.7871C22.4615 32.4291 22.4616 32.6838 22.3053 31.9828C21.8551 29.9644 21.4357 27.9607 20.8648 25.9693C20.6386 25.1801 20.2999 23.4822 19.76 22.6968C19.4008 22.1744 20.3004 23.8495 20.655 24.375C20.8913 24.7252 21.2472 25.7654 21.4242 25.3819C21.9863 24.164 21.3892 21.1619 21.2704 19.9418C21.025 17.4226 19.9558 14.9228 19.9558 12.4039" stroke="#D29F7A" stroke-linecap="round"/>
<path d="M9.63488 7.11759C10.4547 11.5617 11.2281 16.0734 12.4878 20.4173C12.6738 21.0587 12.9404 22.8128 13.2989 22.2493C13.6506 21.6967 13.2222 20.9401 13.1311 20.2914C12.8769 18.4804 12.5859 16.6746 12.32 14.8653C12.0868 13.2786 11.9116 11.6821 11.6767 10.0964C11.4423 8.51427 11.7195 13.2953 11.7886 14.8932C11.7962 15.0699 12.1522 22.2692 12.1522 18.7531C12.1522 17.2335 12.0474 14.134 13.1871 17.4105C13.7127 18.9216 14.1199 20.4878 14.4457 22.0535C14.5744 22.6719 14.134 23.7057 14.7254 23.9275C14.7739 23.9457 14.8838 18.7819 14.9352 18.3195C15.1161 16.6914 15.1729 21.5901 15.1729 23.2283" stroke="#D29F7A" stroke-linecap="round"/>
<path d="M13.4108 36.0665C12.891 36.9241 12.2254 39.0984 12.0123 37.0594C11.9141 36.1189 11.8903 35.1208 11.7047 34.1925C11.4064 32.7014 11.6372 37.2335 11.5508 38.7516C11.2572 43.9107 10.6565 49.544 8.85172 54.4427C7.64545 57.7169 10.514 47.6621 11.5089 44.3176C11.5495 44.1811 13.5384 39.2561 13.6066 39.3669C14.4802 40.7864 14.3767 43.8222 14.4177 45.4364C14.5479 50.5571 15.2122 35.1007 16.935 30.2767" stroke="#D29F7A" stroke-linecap="round"/>
<path d="M16.935 30.2767C16.8258 36.4468 16.2119 42.5173 15.4526 48.6389C15.2327 50.4121 14.958 52.6161 14.7114 54.4287C14.6596 54.8097 14.5809 57.0101 14.166 57.4914C14.0281 57.6514 12.2382 52.9837 12.1102 52.5267C11.9129 51.8221 11.7678 51.1292 11.6487 50.415" stroke="#D29F7A" stroke-linecap="round"/>
<path d="M11.9004 48.1495C12.5111 50.9355 12.8394 53.6353 12.9633 56.4845C12.9978 57.2782 13.0453 58.8215 13.1032 59.6731C13.1228 59.9628 13.1393 60.2537 13.1871 60.5401C13.2376 60.8432 13.3116 61.3768 13.6206 60.7359C15.1181 57.6299 15.3496 53.6805 16.1519 50.3591C16.5254 48.8128 16.8453 47.5698 17.3686 46.1077C17.5451 45.6144 17.7673 44.3667 18.1377 44.7371C18.8177 45.4171 18.1213 49.6922 18.0398 50.471C17.6838 53.8733 16.935 57.0385 16.935 60.4842" stroke="#D29F7A" stroke-linecap="round"/>
<path d="M45.1576 78.9847C45.8436 83.4436 46.7285 87.8677 47.2044 92.3551C47.3329 93.5658 47.1962 98.0331 48.7246 98.7591C50.264 99.4903 52.9007 83.3313 53.2493 81.8575C54.1183 78.183 54.5759 85.5999 54.5899 85.8315C54.8022 89.3497 54.5124 92.8547 54.6378 96.3651C54.6923 97.8921 55.5589 93.4508 56.0622 92.008C56.7035 90.1697 57.4202 88.3543 58.0851 86.5258" stroke="#D29F7A" stroke-linecap="round"/>
<path d="M58.0851 86.5258C58.1972 88.0947 58.5161 89.6259 58.5161 91.206C58.5161 92.012 58.7078 92.2236 59.3779 92.5586" stroke="#D29F7A" stroke-linecap="round"/>
<path d="M74.4601 113.674C74.8403 123.402 76.6878 133.012 76.8301 142.737C76.8348 143.057 76.8269 145.648 76.8301 146.232C76.8321 146.591 76.5185 147.309 76.878 147.309C77.3808 147.309 76.9207 146.303 76.9019 145.801C76.8276 143.814 76.6345 140.894 76.5189 139.05C76.2328 134.484 75.6074 129.773 75.8007 125.189C75.8118 124.926 75.8809 124.491 76.064 124.997C76.1957 125.361 76.7342 127.534 76.7583 127.631C77.4716 130.475 78.2027 133.32 78.6256 136.225C78.8276 137.612 78.5288 139.717 79.0086 141.037C79.5056 142.404 79.6015 138.185 79.7627 136.74C80.2166 132.672 80.4669 128.538 81.5223 124.566C81.8754 123.238 82.2139 122.198 82.5637 124.076C82.9773 126.296 83.1856 128.547 83.2699 130.803C83.2987 131.573 83.2939 131.823 83.2939 132.514C83.2939 132.69 83.439 133.12 83.2819 133.041C83.07 132.935 83.1009 131.52 83.0904 131.305C83.0244 129.952 83.0542 131.725 82.863 132.203" stroke="#D29F7A" stroke-linecap="round"/>
<path d="M56.3615 134.789C55.728 133.637 54.4542 131.9 55.1645 130.479C55.7898 129.229 56.3521 128.971 57.6542 128.971" stroke="#D29F7A" stroke-linecap="round"/>
<path d="M60.6707 141.037C64.1633 141.037 66.0151 135.638 67.0985 132.993C67.9445 130.928 69.3084 123.369 65.1953 123.369" stroke="#D29F7A" stroke-linecap="round"/>
<path d="M67.9963 148.578C67.8068 153.836 67.4861 158.879 68.9539 163.995C69.4172 165.61 69.4855 167.947 70.5818 169.262" stroke="#D29F7A" stroke-linecap="round"/>
<path d="M46.4503 158.058C46.5726 163.192 47.0561 168.323 47.9586 173.38C48.2931 175.254 48.5108 177.445 49.2513 179.173" stroke="#D29F7A" stroke-linecap="round"/>
<path d="M51.4059 157.196C51.773 163.504 52.374 170.108 54.8293 176.001C55.6595 177.994 57.2321 178.71 58.5161 180.251" stroke="#D29F7A" stroke-linecap="round"/>
<path d="M35.8928 160.859C36.065 167.162 34.6173 173.269 34.6001 179.556C34.5925 182.319 34.9251 184.892 35.4619 187.576" stroke="#D29F7A" stroke-linecap="round"/>
<path d="M31.1527 142.114C31.2494 147.008 30.9092 151.659 30.0515 156.478C29.4088 160.089 28.7425 163.676 28.3518 167.323" stroke="#D29F7A" stroke-linecap="round"/>
<path d="M30.7218 112.812C30.7218 119.415 30.7887 126.021 30.6141 132.622C30.5665 134.422 30.5437 136.221 30.5064 138.021C30.4616 140.179 30.0888 138.023 29.86 137.374" stroke="#D29F7A" stroke-linecap="round"/>
<path d="M18.4406 79.4156C19.3433 86.7656 20.1643 93.983 20.1643 101.392" stroke="#D29F7A" stroke-linecap="round"/>
<path d="M21.4571 85.0176C22.5782 95.0768 23.2859 105.164 24.0665 115.254C24.2726 117.917 24.0756 121.672 25.1199 124.255C25.3547 124.836 26.2304 123.49 26.4126 122.891C27.7697 118.426 28.0957 113.536 28.7827 108.934" stroke="#D29F7A" stroke-linecap="round"/>
<path d="M32.0146 70.1509C32.1631 74.5192 32.6824 78.8637 32.9961 83.2221C33.4633 89.713 33.6497 96.2128 34.0016 102.709C34.1642 105.712 34.6001 108.725 34.6001 111.735" stroke="#D29F7A" stroke-linecap="round"/>
<path d="M35.6774 7.88312C35.5083 15.5337 34.5797 23.1288 34.8155 30.7936C34.8339 31.3895 34.8925 31.2013 35.0071 30.6979C35.4999 28.5319 35.8762 26.3355 36.3357 24.1623C37.0425 20.82 37.9328 17.7407 39.1247 14.5624" stroke="#D29F7A" stroke-linecap="round"/>
<path d="M39.3402 14.1314C39.5224 16.1026 39.7421 18.0534 40.2499 19.9728C40.3657 20.4103 40.8059 22.6621 41.4469 22.8695C41.7126 22.9555 41.8316 22.4523 41.9496 22.1992C42.5173 20.9817 43.0113 19.7307 43.5775 18.5124C44.3016 16.9545 45.3705 14.7251 46.2588 13.2217C51.4441 4.44657 44.714 15.866 47.9586 11.115" stroke="#D29F7A" stroke-linecap="round"/>
<path d="M48.174 11.3305C49.1303 14.7372 49.8977 18.0137 49.8977 21.5648C49.8977 23.6613 49.9008 19.6165 49.9216 19.2306C50.0524 16.8122 50.7658 20.5005 50.8313 20.9543C50.8638 21.1794 50.9637 24.4358 51.9326 23.2765C52.9287 22.0848 53.1857 20.2272 54.4822 19.2785C55.2609 18.7087 55.5983 20.2047 56.0143 19.5658C57.0867 17.9189 57.5257 13.5958 59.8088 13.2696" stroke="#D29F7A" stroke-linecap="round"/>
<path d="M42.7855 31.6961C42.7855 39.3196 42.1849 46.7334 41.4548 54.3184C41.1166 57.831 40.5945 61.5234 41.4548 64.9643" stroke="#7D3E12" stroke-linecap="round"/>
<path d="M42.8821 50.0009C45.0177 63.3619 47.4758 76.6798 50.1421 89.945C50.3938 91.1973 50.6426 92.4387 50.9613 93.6738C51.2435 94.7672 50.3217 91.5079 50.0009 90.4252" stroke="#7D3E12" stroke-linecap="round"/>
<path d="M55.5942 56.8654C57.063 64.529 58.723 72.1307 59.323 79.9307C59.4805 81.9781 59.6639 84.1816 59.4643 86.2443C59.3345 87.5851 58.0485 85.2939 57.8823 85.0861" stroke="#7D3E12" stroke-linecap="round"/>
<path d="M26.6107 54.8315C28.3351 62.6075 29.8275 70.212 30.1136 78.1934C30.1898 80.3205 30.1701 82.4496 30.1701 84.5776" stroke="#7D3E12" stroke-linecap="round"/>
<path d="M14.1529 62.9672C14.1738 65.0337 14.3344 67.0648 14.4636 69.1254C14.7465 73.6358 14.2614 78.0602 13.8139 82.5437C13.4535 86.1547 13.2115 89.7368 13.1359 93.3631C13.1085 94.6803 13.3271 94.668 12.6274 94.493" stroke="#7D3E12" stroke-linecap="round"/>
<path d="M19.492 102.12C19.9138 107.375 21.144 112.566 22.5287 117.643C22.8082 118.668 23.1559 119.632 23.3056 120.68" stroke="#7D3E12" stroke-linecap="round"/>
<path d="M59.9163 131.612C58.7975 131.724 57.4487 135.404 57.9388 136.33C58.3814 137.166 58.9829 135.317 59.0123 135.2C59.271 134.165 59.2527 133.712 58.3908 133.138" stroke="#7D3E12" stroke-linecap="round"/>
<path d="M62.2044 140.511C62.2044 142.148 64.2858 142.109 65.5943 141.612C66.7998 141.155 67.1434 138.996 67.8542 138.025C68.4867 137.16 69.7654 135.908 69.2526 134.677C68.8546 133.722 67.4153 132.999 66.7808 132.121C65.8169 130.786 64.5127 129.8 63.5604 128.448C62.6625 127.174 62.0415 125.775 61.1875 124.493" stroke="#7D3E12" stroke-linecap="round"/>
<path d="M50.5094 131.866C50.5094 129.706 49.8648 126.273 52.7834 126.273C54.9768 126.273 55.7348 124.108 57.6281 123.477" stroke="#7D3E12" stroke-linecap="round"/>
<path d="M50.926 142.586C51.7711 144.245 52.6882 145.797 53.8388 147.267C54.7732 148.46 55.1694 149.198 55.0742 150.722C55.0049 151.829 54.3351 152.796 55.0842 153.795" stroke="#7D3E12" stroke-linecap="round"/>
<path d="M42.4289 132.462C43.4394 136.225 44.2637 139.949 44.6386 143.832C44.9848 147.418 44.8204 151.157 45.4622 154.699C45.756 156.321 46.7213 157.472 47.491 158.857" stroke="#7D3E12" stroke-linecap="round"/>
<path d="M37.3668 159.581C38.0362 162.927 37.9092 166.39 37.9092 169.785C37.9092 173.217 37.6822 176.917 38.9337 180.191C39.7609 182.354 41.1452 184.58 42.891 186.116C43.6477 186.782 44.6183 186.98 45.5024 187.422" stroke="#7D3E12" stroke-linecap="round"/>
<path d="M37.1444 179C35.862 179.465 36.0105 181.736 36.0021 182.697C35.9726 186.082 36.2409 189.94 37.6943 193.099C38.1286 194.043 39.061 194 40 194" stroke="#7D3E12" stroke-linecap="round"/>
<path d="M72.6208 169.524C72.8043 170.992 73.0687 172.445 73.1832 173.923C73.4592 177.483 73.0594 181.021 72.8217 184.57C72.6167 187.629 72.6208 190.686 72.6208 193.75" stroke="#7D3E12" stroke-linecap="round"/>
<path d="M66 179C65.8625 183.247 64.3393 187.288 64.0597 191.512C64.0214 192.091 63.7781 193.8 64.6561 193.971C65.0795 194.054 65.4553 193.941 65.8569 193.851" stroke="#7D3E12" stroke-linecap="round"/>
<path d="M81.4795 190.134C80.802 187.947 79.8238 185.873 79.1493 183.686C77.6954 178.971 77.4402 174.019 76.7388 169.162C76.0777 164.585 75.3326 160.16 75.3326 155.533C75.3326 153.201 76.722 150.859 77.2912 148.633C78.1333 145.338 78.7676 141.837 78.7676 138.428" stroke="#7D3E12" stroke-linecap="round"/>
<path d="M64.1237 141.14C64.2365 143.961 64.7028 146.747 65.108 149.537C65.6231 153.083 65.7425 156.793 66.725 160.253C66.9792 161.149 67.4586 162.058 68.4626 161.388" stroke="#7D3E12" stroke-linecap="round"/>
<path d="M80.3947 137.524C80.3255 140.918 80.2198 144.348 79.8021 147.719C79.3133 151.664 78.4661 155.425 78.396 159.42C78.3738 160.684 78.2253 161.931 78.2253 163.196" stroke="#7D3E12" stroke-linecap="round"/>
<path d="M71.7057 112.452C70.668 113.49 70.3024 114.558 70.1412 116.031C69.7719 119.406 69.9774 122.923 70.1175 126.306C70.1609 127.354 69.5872 131.225 71.279 131.225" stroke="#7D3E12" stroke-linecap="round"/>
<path d="M83.0122 109.252C84.1669 113.465 85.1455 117.471 85.1455 121.838" stroke="#7D3E12" stroke-linecap="round"/>
<path d="M83.6522 173.251C83.7873 178.64 83.7831 184.069 84.0907 189.452C84.1157 189.889 84.3709 189.967 84.6122 189.535C85.2812 188.338 85.0996 186.589 85.1455 185.281C85.169 184.61 85.1885 182.628 85.3588 183.278C85.7224 184.664 85.5302 186.269 85.5722 187.686C85.6039 188.761 85.9244 189.516 86.3307 187.9C86.86 185.793 86.7399 183.602 87.1129 181.476C87.2716 180.571 87.5988 180.525 87.9188 181.417C88.5769 183.25 88.6664 185.346 88.5351 187.272C88.3813 189.528 88.5215 187.007 88.0492 188.03C87.4858 189.251 87.177 190.556 86.7099 191.811C85.7799 194.309 85.5061 188.639 85.501 188.587C85.1822 185.295 85.1163 181.929 85.4062 178.632C85.4889 177.692 85.5339 177.11 85.9988 176.878" stroke="#7D3E12" stroke-linecap="round"/>
<path d="M65.7324 52.5059C68.3762 62.668 68.029 73.3475 70.4968 83.5337C70.5724 83.8459 71.04 85.4097 71.4923 84.304C72.4092 82.0629 71.7965 79.3544 71.7057 77.0389" stroke="#7D3E12" stroke-linecap="round"/>
<path d="M74.0523 44.186C75.1185 49.2778 75.9723 54.049 75.9723 59.2495C75.9723 59.768 75.9246 61.3006 76.0671 60.8021C76.7399 58.4472 77.148 55.9618 77.6789 53.5726" stroke="#7D3E12" stroke-linecap="round"/>
<path d="M77.4656 17.733C77.4246 23.9242 77.0389 30.0971 77.0389 36.2928C77.0389 38.1936 77.488 40.74 77.0034 42.5979C76.9462 42.8171 76.0335 40.521 75.9723 40.346" stroke="#7D3E12" stroke-linecap="round"/>
<path d="M83.6522 28.3995C84.6893 31.2147 85.7192 33.8711 85.9633 36.8972C85.9966 37.3111 85.8979 41.8278 86.6388 40.346" stroke="#7D3E12" stroke-linecap="round"/>
<path d="M90.6921 26.4796C91.0032 30.1812 91.5669 33.755 92.3987 37.3594" stroke="#7D3E12" stroke-linecap="round"/>
</svg>
