<svg width="169" height="170" viewBox="0 0 169 170" fill="none" xmlns="http://www.w3.org/2000/svg">
<rect x="1.5" y="1.5" width="160" height="160" rx="9.5" stroke="black" stroke-width="3"/>
<path d="M44.8539 13.7841L132.148 101.078C133.225 102.155 134.042 103.465 134.536 104.907L149.048 147.258C149.588 148.832 148.082 150.338 146.508 149.798L104.157 135.286C102.715 134.792 101.405 133.975 100.328 132.898L13.0341 45.6039C9.12886 41.6987 9.12886 35.367 13.0341 31.4618L30.7118 13.7841C34.617 9.87887 40.9487 9.87887 44.8539 13.7841Z" stroke="black" stroke-width="2"/>
<path d="M44.8539 13.7841L130.938 99.8682C129.507 99.9997 127.499 100.284 125.166 100.896C120.493 102.121 114.485 104.667 109.201 109.951C103.917 115.235 101.371 121.243 100.146 125.916C99.5342 128.249 99.2497 130.257 99.1182 131.688L13.0341 45.6039C9.12886 41.6987 9.12886 35.367 13.0341 31.4618L30.7118 13.7841C34.617 9.87887 40.9487 9.87887 44.8539 13.7841Z" stroke="black" stroke-width="2"/>
<path d="M44.8539 13.7841L51.2179 20.1481C55.1231 24.0533 55.1231 30.385 51.2179 34.2902L33.5402 51.9679C29.635 55.8731 23.3033 55.8731 19.3981 51.9679L13.0341 45.6039C9.12886 41.6987 9.12886 35.367 13.0341 31.4618L30.7118 13.7841C34.617 9.87887 40.9487 9.87887 44.8539 13.7841Z" stroke="black" stroke-width="2"/>
<path d="M140.656 122.596L149.348 147.552C149.898 149.131 148.381 150.648 146.802 150.098L121.846 141.406C121.53 141.296 121.414 141.174 121.374 141.098C121.115 140.599 120.708 139.414 121.312 137.377C121.925 135.308 123.592 132.329 127.585 128.335C131.579 124.342 134.558 122.675 136.627 122.062C138.664 121.458 139.849 121.865 140.348 122.124C140.424 122.164 140.546 122.28 140.656 122.596Z" fill="black" stroke="black" stroke-width="2"/>
</svg>
