<svg width="163" height="163" viewBox="0 0 163 163" fill="none" xmlns="http://www.w3.org/2000/svg">
<rect x="1.5" y="1.5" width="160" height="160" rx="9.5" stroke="black" stroke-width="3"/>
<path d="M48 74.5H133C133.828 74.5 134.5 75.1716 134.5 76V87C134.5 87.8284 133.828 88.5 133 88.5H48C45.5147 88.5 43.5 90.5147 43.5 93V101.936C43.5 103.26 41.9108 103.935 40.9584 103.016L19.7789 82.5794C19.1677 81.9896 19.1677 81.0104 19.7789 80.4206L40.9584 59.9842C41.9108 59.0652 43.5 59.7401 43.5 61.0636V70C43.5 72.4853 45.5147 74.5 48 74.5Z" stroke="black" stroke-width="3"/>
</svg>
